# xmcd
#
# Track frame offsets: 
#        150
#        21619
#        37683
#        60665
#        77324
#        89812
#        119426
#        135129
#        156768
#        183579
#        197319
#        218619
#        237944
#        255120
#        268833
#
# Disc length: 4010 seconds
#
# Revision: 0
# Processed by: cddbd v1.5.2PL0 Copyright (c) Steve Scherf et al.
# Submitted via: ExactAudioCopy v1.0b4
#
DISCID=bc0fa80f
DTITLE=Peter Green - Supernatural [ disk 2 ]
DYEAR=2007
DGENRE=Blues Rock
TTITLE0=Heart Of Stone
TTITLE1=Iґm A Steady Rollinnґ Man (Feat. Otis Rush)
TTITLE2=Big Chance Is Gonna Come
TTITLE3=Homework
TTITLE4=When You Got A Friend
TTITLE5=Youґll Be Sorry Someday
TTITLE6=Phonograph Blues
TTITLE7=Love In Vain Blues
TTITLE8=Burglar
TTITLE9=From Four Untill Late (Feat. Dr John)
TTITLE10=Hiding In Shadows
TTITLE11=Sweet Home Chicago (Feat. Paul Rodgers)
TTITLE12=Hitch Hiking Woman
TTITLE13=Me and The Devil Blues
TTITLE14=Going Down
EXTD=
EXTT0=
EXTT1=
EXTT2=
EXTT3=
EXTT4=
EXTT5=
EXTT6=
EXTT7=
EXTT8=
EXTT9=
EXTT10=
EXTT11=
EXTT12=
EXTT13=
EXTT14=
PLAYORDER=
